<svg xmlns="http://www.w3.org/2000/svg" viewBox="0 0 700 350" width="700" height="350">
  <defs>
    <linearGradient id="bgGrad2" x1="0%" y1="0%" x2="100%" y2="100%">
      <stop offset="0%" style="stop-color:#1e1b4b;stop-opacity:1" />
      <stop offset="100%" style="stop-color:#312e81;stop-opacity:1" />
    </linearGradient>
    <marker id="arrowDown" markerWidth="10" markerHeight="10" refX="5" refY="10" orient="auto">
      <path d="M0,0 L5,10 L10,0" fill="none" stroke="#6366f1" stroke-width="2"/>
    </marker>
  </defs>

  <!-- Background -->
  <rect width="700" height="350" fill="url(#bgGrad2)" rx="8"/>

  <!-- Title -->
  <text x="350" y="30" text-anchor="middle" fill="#e0e7ff" font-family="sans-serif" font-size="18" font-weight="bold">Hecate Data Flow</text>

  <!-- User Input -->
  <rect x="275" y="50" width="150" height="40" fill="#4338ca" rx="6" stroke="#6366f1" stroke-width="2"/>
  <text x="350" y="75" text-anchor="middle" fill="#fbbf24" font-family="sans-serif" font-size="12" font-weight="bold">User Input (TUI)</text>

  <!-- Arrow -->
  <line x1="350" y1="90" x2="350" y2="115" stroke="#6366f1" stroke-width="2"/>
  <polygon points="345,115 355,115 350,125" fill="#6366f1"/>

  <!-- Unix Socket -->
  <rect x="275" y="130" width="150" height="35" fill="#1e1b4b" rx="4" stroke="#4f46e5"/>
  <text x="350" y="152" text-anchor="middle" fill="#a5b4fc" font-family="sans-serif" font-size="11">Unix Socket API</text>

  <!-- Arrow -->
  <line x1="350" y1="165" x2="350" y2="185" stroke="#6366f1" stroke-width="2"/>
  <polygon points="345,185 355,185 350,195" fill="#6366f1"/>

  <!-- Daemon Box -->
  <rect x="150" y="200" width="400" height="90" fill="#3730a3" rx="8" stroke="#6366f1" stroke-width="2"/>
  <text x="350" y="225" text-anchor="middle" fill="#fbbf24" font-family="sans-serif" font-size="13" font-weight="bold">Hecate Daemon</text>

  <!-- Internal components -->
  <rect x="165" y="240" width="85" height="35" fill="#1e1b4b" rx="4"/>
  <text x="207" y="262" text-anchor="middle" fill="#a5b4fc" font-family="sans-serif" font-size="9">LLM Provider</text>

  <rect x="260" y="240" width="85" height="35" fill="#1e1b4b" rx="4"/>
  <text x="302" y="262" text-anchor="middle" fill="#a5b4fc" font-family="sans-serif" font-size="9">Event Store</text>

  <rect x="355" y="240" width="85" height="35" fill="#1e1b4b" rx="4"/>
  <text x="397" y="262" text-anchor="middle" fill="#a5b4fc" font-family="sans-serif" font-size="9">Read Models</text>

  <rect x="450" y="240" width="85" height="35" fill="#1e1b4b" rx="4"/>
  <text x="492" y="262" text-anchor="middle" fill="#a5b4fc" font-family="sans-serif" font-size="9">Mesh Client</text>

  <!-- Arrow to Response -->
  <line x1="350" y1="290" x2="350" y2="310" stroke="#6366f1" stroke-width="2"/>
  <polygon points="345,310 355,310 350,320" fill="#6366f1"/>

  <!-- Response Stream -->
  <rect x="275" y="320" width="150" height="25" fill="#1e1b4b" rx="4" stroke="#4f46e5"/>
  <text x="350" y="337" text-anchor="middle" fill="#a5b4fc" font-family="sans-serif" font-size="10">Response Stream (SSE)</text>

  <!-- Side labels -->
  <text x="620" y="245" fill="#c7d2fe" font-family="sans-serif" font-size="10" font-style="italic">Ollama</text>
  <text x="620" y="260" fill="#c7d2fe" font-family="sans-serif" font-size="10" font-style="italic">OpenAI</text>
  <text x="620" y="275" fill="#c7d2fe" font-family="sans-serif" font-size="10" font-style="italic">Anthropic</text>

  <!-- Arrows to providers -->
  <line x1="550" y1="245" x2="610" y2="245" stroke="#4f46e5" stroke-width="1" stroke-dasharray="4,2"/>
  <line x1="550" y1="260" x2="610" y2="260" stroke="#4f46e5" stroke-width="1" stroke-dasharray="4,2"/>
  <line x1="550" y1="275" x2="610" y2="275" stroke="#4f46e5" stroke-width="1" stroke-dasharray="4,2"/>
</svg>
