<svg xmlns="http://www.w3.org/2000/svg" viewBox="0 0 750 380" width="750" height="380">
  <defs>
    <linearGradient id="bgGrad2" x1="0%" y1="0%" x2="100%" y2="100%">
      <stop offset="0%" style="stop-color:#1e1b4b;stop-opacity:1" />
      <stop offset="100%" style="stop-color:#312e81;stop-opacity:1" />
    </linearGradient>
    <marker id="arrowDown" markerWidth="10" markerHeight="10" refX="5" refY="10" orient="auto">
      <path d="M0,0 L5,10 L10,0" fill="none" stroke="#6366f1" stroke-width="2"/>
    </marker>
  </defs>

  <!-- Background -->
  <rect width="750" height="380" fill="url(#bgGrad2)" rx="8"/>

  <!-- Title -->
  <text x="375" y="30" text-anchor="middle" fill="#e0e7ff" font-family="sans-serif" font-size="18" font-weight="bold">Hecate Data Flow</text>

  <!-- Two entry points -->
  <rect x="175" y="50" width="130" height="35" fill="#4338ca" rx="6" stroke="#6366f1" stroke-width="2"/>
  <text x="240" y="72" text-anchor="middle" fill="#fbbf24" font-family="sans-serif" font-size="11" font-weight="bold">TUI (Terminal)</text>

  <rect x="445" y="50" width="130" height="35" fill="#6d28d9" rx="6" stroke="#8b5cf6" stroke-width="2"/>
  <text x="510" y="72" text-anchor="middle" fill="#fbbf24" font-family="sans-serif" font-size="11" font-weight="bold">Web (Desktop)</text>

  <!-- Arrows from inputs to socket layer -->
  <line x1="240" y1="85" x2="335" y2="118" stroke="#6366f1" stroke-width="2"/>
  <polygon points="332,115 340,118 335,124" fill="#6366f1"/>

  <line x1="510" y1="85" x2="415" y2="118" stroke="#8b5cf6" stroke-width="2"/>
  <polygon points="418,115 410,118 415,124" fill="#8b5cf6"/>

  <!-- Protocol labels -->
  <text x="270" y="100" fill="#a5b4fc" font-family="sans-serif" font-size="8">Unix Socket</text>
  <text x="440" y="100" fill="#c4b5fd" font-family="sans-serif" font-size="8">hecate:// proxy</text>

  <!-- Unix Socket API -->
  <rect x="300" y="120" width="150" height="30" fill="#1e1b4b" rx="4" stroke="#4f46e5"/>
  <text x="375" y="140" text-anchor="middle" fill="#a5b4fc" font-family="sans-serif" font-size="10">Unix Socket API</text>

  <!-- Arrow -->
  <line x1="375" y1="150" x2="375" y2="175" stroke="#6366f1" stroke-width="2"/>
  <polygon points="370,175 380,175 375,185" fill="#6366f1"/>

  <!-- Daemon Box -->
  <rect x="160" y="190" width="430" height="100" fill="#3730a3" rx="8" stroke="#6366f1" stroke-width="2"/>
  <text x="375" y="215" text-anchor="middle" fill="#fbbf24" font-family="sans-serif" font-size="13" font-weight="bold">Hecate Daemon</text>

  <!-- Internal components -->
  <rect x="175" y="230" width="90" height="35" fill="#1e1b4b" rx="4"/>
  <text x="220" y="252" text-anchor="middle" fill="#a5b4fc" font-family="sans-serif" font-size="9">LLM Provider</text>

  <rect x="275" y="230" width="90" height="35" fill="#1e1b4b" rx="4"/>
  <text x="320" y="252" text-anchor="middle" fill="#a5b4fc" font-family="sans-serif" font-size="9">Event Store</text>

  <rect x="375" y="230" width="90" height="35" fill="#1e1b4b" rx="4"/>
  <text x="420" y="252" text-anchor="middle" fill="#a5b4fc" font-family="sans-serif" font-size="9">Read Models</text>

  <rect x="475" y="230" width="90" height="35" fill="#1e1b4b" rx="4"/>
  <text x="520" y="252" text-anchor="middle" fill="#a5b4fc" font-family="sans-serif" font-size="9">Mesh Client</text>

  <!-- Arrow to Response -->
  <line x1="375" y1="290" x2="375" y2="315" stroke="#6366f1" stroke-width="2"/>
  <polygon points="370,315 380,315 375,325" fill="#6366f1"/>

  <!-- Response Stream -->
  <rect x="300" y="330" width="150" height="25" fill="#1e1b4b" rx="4" stroke="#4f46e5"/>
  <text x="375" y="347" text-anchor="middle" fill="#a5b4fc" font-family="sans-serif" font-size="10">Response Stream (SSE)</text>

  <!-- Side labels for providers -->
  <text x="660" y="235" fill="#c7d2fe" font-family="sans-serif" font-size="10" font-style="italic">Ollama</text>
  <text x="660" y="250" fill="#c7d2fe" font-family="sans-serif" font-size="10" font-style="italic">OpenAI</text>
  <text x="660" y="265" fill="#c7d2fe" font-family="sans-serif" font-size="10" font-style="italic">Anthropic</text>

  <!-- Arrows to providers -->
  <line x1="590" y1="235" x2="650" y2="235" stroke="#4f46e5" stroke-width="1" stroke-dasharray="4,2"/>
  <line x1="590" y1="250" x2="650" y2="250" stroke="#4f46e5" stroke-width="1" stroke-dasharray="4,2"/>
  <line x1="590" y1="265" x2="650" y2="265" stroke="#4f46e5" stroke-width="1" stroke-dasharray="4,2"/>

  <!-- Legend -->
  <rect x="30" y="335" width="10" height="10" fill="#4338ca" rx="2"/>
  <text x="45" y="344" fill="#a5b4fc" font-family="sans-serif" font-size="8">TUI (Go)</text>
  <rect x="100" y="335" width="10" height="10" fill="#6d28d9" rx="2"/>
  <text x="115" y="344" fill="#c4b5fd" font-family="sans-serif" font-size="8">Web (Tauri/SvelteKit)</text>
</svg>
